<svg xmlns="http://www.w3.org/2000/svg" width="512" height="512" viewBox="0 0 512 512"><rect width="512" height="512" rx="112" fill="#0f766e"/><circle cx="256" cy="256" r="166" fill="#14b8a6" opacity=".32"/><path d="M147 144h218a35 35 0 0 1 35 35v154a35 35 0 0 1-35 35H147a35 35 0 0 1-35-35V179a35 35 0 0 1 35-35Z" fill="#fff"/><path d="M173 208h166M173 256h112M173 304h138" stroke="#0f766e" stroke-width="24" stroke-linecap="round"/><circle cx="352" cy="298" r="62" fill="#0f766e"/><path d="m323 298 22 22 40-49" fill="none" stroke="#fff" stroke-width="19" stroke-linecap="round" stroke-linejoin="round"/></svg>